# xmcd
#
# Track frame offsets:
#	150
#	22897
#	46325
#	69120
#	91132
#	108840
#	121957
#	140870
#	159512
#
# Disc length: 2472 seconds
#
# Revision: 3
# Processed by: cddbd v1.5.2PL0 Copyright (c) Steve Scherf et al.
# Submitted via: audiograbber 1.83.01
#
DISCID=6a09a609
DTITLE=Giant Sand - Stromausfall
DYEAR=1993
DGENRE=Americana
TTITLE0=October Anywhere
TTITLE1=The Y Stop Jumble
TTITLE2=Steadfast
TTITLE3=Ropes Of Bible Black
TTITLE4=Mt. Of Love
TTITLE5=The Replacement
TTITLE6=Severely Altered On The Hill
TTITLE7=Dreamville, New Mexico
TTITLE8=Seldom Matters
EXTD=YEAR: 1993
EXTT0=
EXTT1=
EXTT2=
EXTT3=
EXTT4=
EXTT5=
EXTT6=
EXTT7=
EXTT8=
PLAYORDER=
